<svg width="240" height="138" viewBox="0 0 240 138" fill="none" xmlns="http://www.w3.org/2000/svg"><path d="M118.687 5.10308V3.84232h-2.206L117.263 0h-1.283l-.762 3.84232h-1.805L114.195 0h-1.283l-.762 3.84232h-2.446v1.26076h2.206l-.602 3.02183h-2.125v1.26076h1.884l-.922 4.56273h1.283l.903-4.56273h1.804l-.922 4.56273h1.283l.903-4.56273h2.727V8.12491h-2.467l.602-3.02183h2.426zm-6.096 3.02183l.602-3.02183h1.785l-.602 3.02183h-1.785zM130.818 5.10308V3.84232h-2.205L129.395 0h-1.284l-.762 3.84232h-1.804L126.327 0h-1.283l-.762 3.84232h-2.447v1.26076h2.206l-.602 3.02183h-2.125v1.26076h1.885l-.923 4.56273h1.284l.902-4.56273h1.805l-.923 4.56273h1.284l.902-4.56273h2.727V8.12491h-2.466l.601-3.02183h2.426zm-6.095 3.02183l.601-3.02183h1.785l-.602 3.02183h-1.784zM9.50504 22.8247V21.564h-2.2057l.78202-3.8423H6.79805l-.76197 3.8423H4.23142l.78202-3.8423H3.73012l-.76197 3.8423H.521835v1.2607H2.72753l-.60155 3.0219H.000488v1.2607H1.88536l-.922385 4.5628H2.24629l.90233-4.5628h1.80466l-.92238 4.5628h1.28332l.90233-4.5628h2.72704v-1.2607H6.47722l.60155-3.0219h2.42627zm-6.09575 3.0219l.60156-3.0219h1.78461l-.60156 3.0219H3.40929zM21.6364 22.8247V21.564h-2.2057l.782-3.8423h-1.2833l-.762 3.8423h-1.8046l.782-3.8423h-1.2833l-.762 3.8423h-2.4463v1.2607h2.2057l-.6016 3.0219h-2.1255v1.2607h1.8849l-.9224 4.5628h1.2833l.9024-4.5628h1.8046l-.9224 4.5628h1.2834l.9023-4.5628h2.727v-1.2607h-2.4663l.6015-3.0219h2.4263zm-6.0958 3.0219l.6016-3.0219h1.7846l-.6016 3.0219h-1.7846zM33.7677 22.8247V21.564H31.562l.782-3.8423h-1.2833l-.7619 3.8423h-1.8047l.782-3.8423h-1.2833l-.762 3.8423h-2.4463v1.2607h2.2057l-.6015 3.0219h-2.1255v1.2607h1.8848l-.9223 4.5628h1.2833l.9023-4.5628h1.8047l-.9224 4.5628h1.2833l.9023-4.5628h2.7271v-1.2607h-2.4664l.6016-3.0219h2.4262zm-6.0957 3.0219l.6015-3.0219h1.7846l-.6015 3.0219H27.672zM118.687 22.8247V21.564h-2.206l.782-3.8423h-1.283l-.762 3.8423h-1.805l.782-3.8423h-1.283l-.762 3.8423h-2.446v1.2607h2.206l-.602 3.0219h-2.125v1.2607h1.884l-.922 4.5628h1.283l.903-4.5628h1.804l-.922 4.5628h1.283l.903-4.5628h2.727v-1.2607h-2.467l.602-3.0219h2.426zm-6.096 3.0219l.602-3.0219h1.785l-.602 3.0219h-1.785zM130.818 22.8247V21.564h-2.205l.782-3.8423h-1.284l-.762 3.8423h-1.804l.782-3.8423h-1.283l-.762 3.8423h-2.447v1.2607h2.206l-.602 3.0219h-2.125v1.2607h1.885l-.923 4.5628h1.284l.902-4.5628h1.805l-.923 4.5628h1.284l.902-4.5628h2.727v-1.2607h-2.466l.601-3.0219h2.426zm-6.095 3.0219l.601-3.0219h1.785l-.602 3.0219h-1.784zM215.738 22.8247V21.564h-2.206l.782-3.8423h-1.283l-.762 3.8423h-1.805l.782-3.8423h-1.283l-.762 3.8423h-2.446v1.2607h2.205l-.601 3.0219h-2.126v1.2607h1.885l-.922 4.5628h1.283l.902-4.5628h1.805l-.922 4.5628h1.283l.902-4.5628h2.727v-1.2607h-2.466l.602-3.0219h2.426zm-6.096 3.0219l.602-3.0219h1.784l-.601 3.0219h-1.785zM227.869 22.8247V21.564h-2.206l.782-3.8423h-1.283l-.762 3.8423h-1.804l.782-3.8423h-1.284l-.762 3.8423h-2.446v1.2607h2.206l-.602 3.0219h-2.125v1.2607h1.884l-.922 4.5628h1.283l.903-4.5628h1.804l-.922 4.5628h1.283l.903-4.5628h2.727v-1.2607h-2.467l.602-3.0219h2.426zm-6.096 3.0219l.602-3.0219h1.785l-.602 3.0219h-1.785zM240 22.8247V21.564h-2.205l.782-3.8423h-1.284l-.761 3.8423h-1.805l.782-3.8423h-1.283l-.762 3.8423h-2.447v1.2607h2.206l-.602 3.0219h-2.125v1.2607h1.885l-.923 4.5628h1.284l.902-4.5628h1.805l-.923 4.5628h1.284l.902-4.5628h2.727v-1.2607h-2.466l.601-3.0219H240zm-6.095 3.0219l.601-3.0219h1.785l-.602 3.0219h-1.784zM33.7677 40.5464v-1.2608H31.562l.782-3.8423h-1.2833l-.7619 3.8423h-1.8047l.782-3.8423h-1.2833l-.762 3.8423h-2.4463v1.2608h2.2057l-.6015 3.0218h-2.1255v1.2608h1.8848l-.9223 4.5627h1.2833l.9023-4.5627h1.8047l-.9224 4.5627h1.2833l.9023-4.5627h2.7271v-1.2608h-2.4664l.6016-3.0218h2.4262zm-6.0957 3.0218l.6015-3.0218h1.7846l-.6015 3.0218H27.672zM45.8991 40.5464v-1.2608h-2.2057l.782-3.8423h-1.2833l-.762 3.8423h-1.8047l.7821-3.8423h-1.2834l-.7619 3.8423h-2.4463v1.2608h2.2057l-.6016 3.0218h-2.1255v1.2608h1.8849l-.9224 4.5627h1.2833l.9023-4.5627h1.8047l-.9224 4.5627h1.2833l.9024-4.5627h2.727v-1.2608h-2.4664l.6016-3.0218h2.4263zm-6.0958 3.0218l.6016-3.0218h1.7846l-.6016 3.0218h-1.7846zM58.0304 40.5464v-1.2608h-2.2057l.782-3.8423h-1.2833l-.762 3.8423h-1.8046l.782-3.8423h-1.2833l-.762 3.8423h-2.4463v1.2608h2.2057l-.6016 3.0218h-2.1255v1.2608h1.8849l-.9224 4.5627h1.2833l.9024-4.5627h1.8046l-.9223 4.5627h1.2833l.9023-4.5627h2.727v-1.2608h-2.4663l.6015-3.0218h2.4263zm-6.0957 3.0218l.6015-3.0218h1.7846l-.6015 3.0218h-1.7846zM118.687 40.5464v-1.2608h-2.206l.782-3.8423h-1.283l-.762 3.8423h-1.805l.782-3.8423h-1.283l-.762 3.8423h-2.446v1.2608h2.206l-.602 3.0218h-2.125v1.2608h1.884l-.922 4.5627h1.283l.903-4.5627h1.804l-.922 4.5627h1.283l.903-4.5627h2.727v-1.2608h-2.467l.602-3.0218h2.426zm-6.096 3.0218l.602-3.0218h1.785l-.602 3.0218h-1.785zM130.818 40.5464v-1.2608h-2.205l.782-3.8423h-1.284l-.762 3.8423h-1.804l.782-3.8423h-1.283l-.762 3.8423h-2.447v1.2608h2.206l-.602 3.0218h-2.125v1.2608h1.885l-.923 4.5627h1.284l.902-4.5627h1.805l-.923 4.5627h1.284l.902-4.5627h2.727v-1.2608h-2.466l.601-3.0218h2.426zm-6.095 3.0218l.601-3.0218h1.785l-.602 3.0218h-1.784zM191.475 40.5464v-1.2608h-2.206l.782-3.8423h-1.283l-.762 3.8423h-1.804l.782-3.8423H185.7l-.762 3.8423h-2.446v1.2608h2.206l-.602 3.0218h-2.125v1.2608h1.884l-.922 4.5627h1.283l.903-4.5627h1.804l-.922 4.5627h1.283l.903-4.5627h2.727v-1.2608h-2.467l.602-3.0218h2.426zm-6.096 3.0218l.602-3.0218h1.785l-.602 3.0218h-1.785zM203.606 40.5464v-1.2608h-2.205l.782-3.8423h-1.284l-.761 3.8423h-1.805l.782-3.8423h-1.283l-.762 3.8423h-2.447v1.2608h2.206l-.602 3.0218h-2.125v1.2608h1.885l-.923 4.5627h1.284l.902-4.5627h1.805l-.923 4.5627h1.284l.902-4.5627h2.727v-1.2608h-2.466l.601-3.0218h2.426zm-6.095 3.0218l.601-3.0218h1.785l-.602 3.0218h-1.784zM215.738 40.5464v-1.2608h-2.206l.782-3.8423h-1.283l-.762 3.8423h-1.805l.782-3.8423h-1.283l-.762 3.8423h-2.446v1.2608h2.205l-.601 3.0218h-2.126v1.2608h1.885l-.922 4.5627h1.283l.902-4.5627h1.805l-.922 4.5627h1.283l.902-4.5627h2.727v-1.2608h-2.466l.602-3.0218h2.426zm-6.096 3.0218l.602-3.0218h1.784l-.601 3.0218h-1.785zM70.1617 58.268v-1.2607H67.956l.7821-3.8423h-1.2834l-.7619 3.8423h-1.8047l.782-3.8423h-1.2833l-.762 3.8423h-2.4463v1.2607h2.2057l-.6015 3.0219h-2.1255v1.2607h1.8849l-.9224 4.5628h1.2833l.9023-4.5628H65.61l-.9224 4.5628h1.2833l.9023-4.5628h2.7271v-1.2607h-2.4664l.6016-3.0219h2.4262zm-6.0957 3.0219l.6015-3.0219h1.7847l-.6016 3.0219H64.066zM82.2931 58.268v-1.2607h-2.2057l.782-3.8423h-1.2833l-.762 3.8423h-1.8046l.782-3.8423h-1.2833l-.762 3.8423h-2.4463v1.2607h2.2057l-.6016 3.0219h-2.1255v1.2607h1.8849l-.9224 4.5628h1.2833l.9024-4.5628h1.8046l-.9224 4.5628h1.2834l.9023-4.5628h2.727v-1.2607h-2.4663l.6015-3.0219h2.4263zm-6.0958 3.0219l.6016-3.0219h1.7846l-.6016 3.0219h-1.7846zM94.4244 58.268v-1.2607h-2.2057l.782-3.8423h-1.2833l-.7619 3.8423h-1.8047l.782-3.8423h-1.2833l-.762 3.8423h-2.4463v1.2607h2.2057l-.6015 3.0219h-2.1255v1.2607h1.8848l-.9223 4.5628h1.2833l.9023-4.5628h1.8047l-.9224 4.5628h1.2833l.9023-4.5628h2.7271v-1.2607h-2.4664l.6016-3.0219h2.4262zm-6.0957 3.0219l.6015-3.0219h1.7846l-.6015 3.0219h-1.7846zM118.687 58.268v-1.2607h-2.206l.782-3.8423h-1.283l-.762 3.8423h-1.805l.782-3.8423h-1.283l-.762 3.8423h-2.446v1.2607h2.206l-.602 3.0219h-2.125v1.2607h1.884l-.922 4.5628h1.283l.903-4.5628h1.804l-.922 4.5628h1.283l.903-4.5628h2.727v-1.2607h-2.467l.602-3.0219h2.426zm-6.096 3.0219l.602-3.0219h1.785l-.602 3.0219h-1.785zM130.818 58.268v-1.2607h-2.205l.782-3.8423h-1.284l-.762 3.8423h-1.804l.782-3.8423h-1.283l-.762 3.8423h-2.447v1.2607h2.206l-.602 3.0219h-2.125v1.2607h1.885l-.923 4.5628h1.284l.902-4.5628h1.805l-.923 4.5628h1.284l.902-4.5628h2.727v-1.2607h-2.466l.601-3.0219h2.426zm-6.095 3.0219l.601-3.0219h1.785l-.602 3.0219h-1.784zM155.081 58.268v-1.2607h-2.206l.782-3.8423h-1.283l-.762 3.8423h-1.805l.783-3.8423h-1.284l-.762 3.8423h-2.446v1.2607h2.206l-.602 3.0219h-2.125v1.2607h1.884l-.922 4.5628h1.283l.903-4.5628h1.804l-.922 4.5628h1.283l.903-4.5628h2.727v-1.2607h-2.467l.602-3.0219h2.426zm-6.096 3.0219l.602-3.0219h1.785l-.602 3.0219h-1.785zM167.212 58.268v-1.2607h-2.205l.782-3.8423h-1.284l-.762 3.8423h-1.804l.782-3.8423h-1.283l-.762 3.8423h-2.447v1.2607h2.206l-.602 3.0219h-2.125v1.2607h1.885l-.923 4.5628h1.284l.902-4.5628h1.805l-.923 4.5628h1.284l.902-4.5628h2.727v-1.2607h-2.466l.601-3.0219h2.426zm-6.095 3.0219l.601-3.0219h1.785l-.602 3.0219h-1.784zM179.344 58.268v-1.2607h-2.206l.782-3.8423h-1.283l-.762 3.8423h-1.805l.782-3.8423h-1.283l-.762 3.8423h-2.446v1.2607h2.205l-.601 3.0219h-2.126v1.2607h1.885l-.922 4.5628h1.283l.902-4.5628h1.805l-.922 4.5628h1.283l.902-4.5628h2.727v-1.2607h-2.466l.602-3.0219h2.426zm-6.096 3.0219l.602-3.0219h1.784l-.601 3.0219h-1.785zM70.1617 75.9897v-1.2608H67.956l.7821-3.8423h-1.2834l-.7619 3.8423h-1.8047l.782-3.8423h-1.2833l-.762 3.8423h-2.4463v1.2608h2.2057l-.6015 3.0218h-2.1255v1.2608h1.8849l-.9224 4.5627h1.2833l.9023-4.5627H65.61l-.9224 4.5627h1.2833l.9023-4.5627h2.7271v-1.2608h-2.4664l.6016-3.0218h2.4262zm-6.0957 3.0218l.6015-3.0218h1.7847l-.6016 3.0218H64.066zM82.2931 75.9897v-1.2608h-2.2057l.782-3.8423h-1.2833l-.762 3.8423h-1.8046l.782-3.8423h-1.2833l-.762 3.8423h-2.4463v1.2608h2.2057l-.6016 3.0218h-2.1255v1.2608h1.8849l-.9224 4.5627h1.2833l.9024-4.5627h1.8046l-.9224 4.5627h1.2834l.9023-4.5627h2.727v-1.2608h-2.4663l.6015-3.0218h2.4263zm-6.0958 3.0218l.6016-3.0218h1.7846l-.6016 3.0218h-1.7846zM94.4244 75.9897v-1.2608h-2.2057l.782-3.8423h-1.2833l-.7619 3.8423h-1.8047l.782-3.8423h-1.2833l-.762 3.8423h-2.4463v1.2608h2.2057l-.6015 3.0218h-2.1255v1.2608h1.8848l-.9223 4.5627h1.2833l.9023-4.5627h1.8047l-.9224 4.5627h1.2833l.9023-4.5627h2.7271v-1.2608h-2.4664l.6016-3.0218h2.4262zm-6.0957 3.0218l.6015-3.0218h1.7846l-.6015 3.0218h-1.7846zM118.687 75.9897v-1.2608h-2.206l.782-3.8423h-1.283l-.762 3.8423h-1.805l.782-3.8423h-1.283l-.762 3.8423h-2.446v1.2608h2.206l-.602 3.0218h-2.125v1.2608h1.884l-.922 4.5627h1.283l.903-4.5627h1.804l-.922 4.5627h1.283l.903-4.5627h2.727v-1.2608h-2.467l.602-3.0218h2.426zm-6.096 3.0218l.602-3.0218h1.785l-.602 3.0218h-1.785zM130.818 75.9897v-1.2608h-2.205l.782-3.8423h-1.284l-.762 3.8423h-1.804l.782-3.8423h-1.283l-.762 3.8423h-2.447v1.2608h2.206l-.602 3.0218h-2.125v1.2608h1.885l-.923 4.5627h1.284l.902-4.5627h1.805l-.923 4.5627h1.284l.902-4.5627h2.727v-1.2608h-2.466l.601-3.0218h2.426zm-6.095 3.0218l.601-3.0218h1.785l-.602 3.0218h-1.784zM155.081 75.9897v-1.2608h-2.206l.782-3.8423h-1.283l-.762 3.8423h-1.805l.783-3.8423h-1.284l-.762 3.8423h-2.446v1.2608h2.206l-.602 3.0218h-2.125v1.2608h1.884l-.922 4.5627h1.283l.903-4.5627h1.804l-.922 4.5627h1.283l.903-4.5627h2.727v-1.2608h-2.467l.602-3.0218h2.426zm-6.096 3.0218l.602-3.0218h1.785l-.602 3.0218h-1.785zM167.212 75.9897v-1.2608h-2.205l.782-3.8423h-1.284l-.762 3.8423h-1.804l.782-3.8423h-1.283l-.762 3.8423h-2.447v1.2608h2.206l-.602 3.0218h-2.125v1.2608h1.885l-.923 4.5627h1.284l.902-4.5627h1.805l-.923 4.5627h1.284l.902-4.5627h2.727v-1.2608h-2.466l.601-3.0218h2.426zm-6.095 3.0218l.601-3.0218h1.785l-.602 3.0218h-1.784zM179.344 75.9897v-1.2608h-2.206l.782-3.8423h-1.283l-.762 3.8423h-1.805l.782-3.8423h-1.283l-.762 3.8423h-2.446v1.2608h2.205l-.601 3.0218h-2.126v1.2608h1.885l-.922 4.5627h1.283l.902-4.5627h1.805l-.922 4.5627h1.283l.902-4.5627h2.727v-1.2608h-2.466l.602-3.0218h2.426zm-6.096 3.0218l.602-3.0218h1.784l-.601 3.0218h-1.785zM33.7677 93.7114v-1.2608H31.562l.782-3.8423h-1.2833l-.7619 3.8423h-1.8047l.782-3.8423h-1.2833l-.762 3.8423h-2.4463v1.2608h2.2057l-.6015 3.0218h-2.1255v1.2607h1.8848l-.9223 4.5631h1.2833l.9023-4.5631h1.8047l-.9224 4.5631h1.2833l.9023-4.5631h2.7271v-1.2607h-2.4664l.6016-3.0218h2.4262zm-6.0957 3.0218l.6015-3.0218h1.7846l-.6015 3.0218H27.672zM45.8991 93.7114v-1.2608h-2.2057l.782-3.8423h-1.2833l-.762 3.8423h-1.8047l.7821-3.8423h-1.2834l-.7619 3.8423h-2.4463v1.2608h2.2057l-.6016 3.0218h-2.1255v1.2607h1.8849l-.9224 4.5631h1.2833l.9023-4.5631h1.8047l-.9224 4.5631h1.2833l.9024-4.5631h2.727v-1.2607h-2.4664l.6016-3.0218h2.4263zm-6.0958 3.0218l.6016-3.0218h1.7846l-.6016 3.0218h-1.7846zM58.0304 93.7114v-1.2608h-2.2057l.782-3.8423h-1.2833l-.762 3.8423h-1.8046l.782-3.8423h-1.2833l-.762 3.8423h-2.4463v1.2608h2.2057l-.6016 3.0218h-2.1255v1.2607h1.8849l-.9224 4.5631h1.2833l.9024-4.5631h1.8046l-.9223 4.5631h1.2833l.9023-4.5631h2.727v-1.2607h-2.4663l.6015-3.0218h2.4263zm-6.0957 3.0218l.6015-3.0218h1.7846l-.6015 3.0218h-1.7846zM118.687 93.7114v-1.2608h-2.206l.782-3.8423h-1.283l-.762 3.8423h-1.805l.782-3.8423h-1.283l-.762 3.8423h-2.446v1.2608h2.206l-.602 3.0218h-2.125v1.2607h1.884l-.922 4.5631h1.283l.903-4.5631h1.804l-.922 4.5631h1.283l.903-4.5631h2.727v-1.2607h-2.467l.602-3.0218h2.426zm-6.096 3.0218l.602-3.0218h1.785l-.602 3.0218h-1.785zM130.818 93.7114v-1.2608h-2.205l.782-3.8423h-1.284l-.762 3.8423h-1.804l.782-3.8423h-1.283l-.762 3.8423h-2.447v1.2608h2.206l-.602 3.0218h-2.125v1.2607h1.885l-.923 4.5631h1.284l.902-4.5631h1.805l-.923 4.5631h1.284l.902-4.5631h2.727v-1.2607h-2.466l.601-3.0218h2.426zm-6.095 3.0218l.601-3.0218h1.785l-.602 3.0218h-1.784zM191.475 93.7114v-1.2608h-2.206l.782-3.8423h-1.283l-.762 3.8423h-1.804l.782-3.8423H185.7l-.762 3.8423h-2.446v1.2608h2.206l-.602 3.0218h-2.125v1.2607h1.884l-.922 4.5631h1.283l.903-4.5631h1.804l-.922 4.5631h1.283l.903-4.5631h2.727v-1.2607h-2.467l.602-3.0218h2.426zm-6.096 3.0218l.602-3.0218h1.785l-.602 3.0218h-1.785zM203.606 93.7114v-1.2608h-2.205l.782-3.8423h-1.284l-.761 3.8423h-1.805l.782-3.8423h-1.283l-.762 3.8423h-2.447v1.2608h2.206l-.602 3.0218h-2.125v1.2607h1.885l-.923 4.5631h1.284l.902-4.5631h1.805l-.923 4.5631h1.284l.902-4.5631h2.727v-1.2607h-2.466l.601-3.0218h2.426zm-6.095 3.0218l.601-3.0218h1.785l-.602 3.0218h-1.784zM215.738 93.7114v-1.2608h-2.206l.782-3.8423h-1.283l-.762 3.8423h-1.805l.782-3.8423h-1.283l-.762 3.8423h-2.446v1.2608h2.205l-.601 3.0218h-2.126v1.2607h1.885l-.922 4.5631h1.283l.902-4.5631h1.805l-.922 4.5631h1.283l.902-4.5631h2.727v-1.2607h-2.466l.602-3.0218h2.426zm-6.096 3.0218l.602-3.0218h1.784l-.601 3.0218h-1.785zM9.50504 111.433v-1.261h-2.2057l.78202-3.842H6.79805l-.76197 3.842H4.23142l.78202-3.842H3.73012l-.76197 3.842H.521835v1.261H2.72753l-.60155 3.022H.000488v1.261H1.88536l-.922385 4.562H2.24629l.90233-4.562h1.80466l-.92238 4.562h1.28332l.90233-4.562h2.72704v-1.261H6.47722l.60155-3.022h2.42627zm-6.09575 3.022l.60156-3.022h1.78461l-.60156 3.022H3.40929zM21.6364 111.433v-1.261h-2.2057l.782-3.842h-1.2833l-.762 3.842h-1.8046l.782-3.842h-1.2833l-.762 3.842h-2.4463v1.261h2.2057l-.6016 3.022h-2.1255v1.261h1.8849l-.9224 4.562h1.2833l.9024-4.562h1.8046l-.9224 4.562h1.2834l.9023-4.562h2.727v-1.261h-2.4663l.6015-3.022h2.4263zm-6.0958 3.022l.6016-3.022h1.7846l-.6016 3.022h-1.7846zM33.7677 111.433v-1.261H31.562l.782-3.842h-1.2833l-.7619 3.842h-1.8047l.782-3.842h-1.2833l-.762 3.842h-2.4463v1.261h2.2057l-.6015 3.022h-2.1255v1.261h1.8848l-.9223 4.562h1.2833l.9023-4.562h1.8047l-.9224 4.562h1.2833l.9023-4.562h2.7271v-1.261h-2.4664l.6016-3.022h2.4262zm-6.0957 3.022l.6015-3.022h1.7846l-.6015 3.022H27.672zM118.687 111.433v-1.261h-2.206l.782-3.842h-1.283l-.762 3.842h-1.805l.782-3.842h-1.283l-.762 3.842h-2.446v1.261h2.206l-.602 3.022h-2.125v1.261h1.884l-.922 4.562h1.283l.903-4.562h1.804l-.922 4.562h1.283l.903-4.562h2.727v-1.261h-2.467l.602-3.022h2.426zm-6.096 3.022l.602-3.022h1.785l-.602 3.022h-1.785zM130.818 111.433v-1.261h-2.205l.782-3.842h-1.284l-.762 3.842h-1.804l.782-3.842h-1.283l-.762 3.842h-2.447v1.261h2.206l-.602 3.022h-2.125v1.261h1.885l-.923 4.562h1.284l.902-4.562h1.805l-.923 4.562h1.284l.902-4.562h2.727v-1.261h-2.466l.601-3.022h2.426zm-6.095 3.022l.601-3.022h1.785l-.602 3.022h-1.784zM215.738 111.433v-1.261h-2.206l.782-3.842h-1.283l-.762 3.842h-1.805l.782-3.842h-1.283l-.762 3.842h-2.446v1.261h2.205l-.601 3.022h-2.126v1.261h1.885l-.922 4.562h1.283l.902-4.562h1.805l-.922 4.562h1.283l.902-4.562h2.727v-1.261h-2.466l.602-3.022h2.426zm-6.096 3.022l.602-3.022h1.784l-.601 3.022h-1.785zM227.869 111.433v-1.261h-2.206l.782-3.842h-1.283l-.762 3.842h-1.804l.782-3.842h-1.284l-.762 3.842h-2.446v1.261h2.206l-.602 3.022h-2.125v1.261h1.884l-.922 4.562h1.283l.903-4.562h1.804l-.922 4.562h1.283l.903-4.562h2.727v-1.261h-2.467l.602-3.022h2.426zm-6.096 3.022l.602-3.022h1.785l-.602 3.022h-1.785zM240 111.433v-1.261h-2.205l.782-3.842h-1.284l-.761 3.842h-1.805l.782-3.842h-1.283l-.762 3.842h-2.447v1.261h2.206l-.602 3.022h-2.125v1.261h1.885l-.923 4.562h1.284l.902-4.562h1.805l-.923 4.562h1.284l.902-4.562h2.727v-1.261h-2.466l.601-3.022H240zm-6.095 3.022l.601-3.022h1.785l-.602 3.022h-1.784zM118.687 129.155v-1.261h-2.206l.782-3.842h-1.283l-.762 3.842h-1.805l.782-3.842h-1.283l-.762 3.842h-2.446v1.261h2.206l-.602 3.021h-2.125v1.261h1.884l-.922 4.563h1.283l.903-4.563h1.804l-.922 4.563h1.283l.903-4.563h2.727v-1.261h-2.467l.602-3.021h2.426zm-6.096 3.021l.602-3.021h1.785l-.602 3.021h-1.785zM130.818 129.155v-1.261h-2.205l.782-3.842h-1.284l-.762 3.842h-1.804l.782-3.842h-1.283l-.762 3.842h-2.447v1.261h2.206l-.602 3.021h-2.125v1.261h1.885l-.923 4.563h1.284l.902-4.563h1.805l-.923 4.563h1.284l.902-4.563h2.727v-1.261h-2.466l.601-3.021h2.426zm-6.095 3.021l.601-3.021h1.785l-.602 3.021h-1.784z" fill="#F2F2F2"/></svg>